<svg t="1688567399080" class="icon" viewBox="0 0 1024 1024" version="1.1" xmlns="http://www.w3.org/2000/svg" p-id="3382" width="200" height="200"><path d="M750.236735 909.061224H273.763265c-38.661224 0-70.530612-31.869388-70.530612-70.530612V564.244898c0-6.269388-5.22449-11.493878-10.971429-11.493878h-26.644897c-20.897959 0-38.661224-12.016327-47.020409-31.346938-7.836735-19.330612-3.657143-40.75102 10.971429-55.379592l324.440816-327.053061c15.673469-15.673469 36.04898-24.032653 57.991837-24.032653s42.318367 8.359184 57.991837 24.032653l324.440816 327.053061c14.628571 14.628571 18.808163 36.571429 10.971429 55.379592-7.836735 19.330612-26.122449 31.346939-47.020409 31.346938h-26.644897c-6.269388 0-10.971429 5.22449-10.971429 11.493878v274.285714c0 38.661224-31.869388 70.530612-70.530612 70.530612z" fill="#16C4AF" p-id="3383"></path><path d="M656.195918 909.061224H367.804082v-208.457142c0-43.885714 35.526531-79.412245 79.412245-79.412245h129.044897c43.885714 0 79.412245 35.526531 79.412245 79.412245V909.061224z" fill="#0B9682" p-id="3384"></path></svg>