<svg t="1688567186322" class="icon" viewBox="0 0 1024 1024" version="1.1" xmlns="http://www.w3.org/2000/svg" p-id="2368" width="200" height="200"><path d="M548.68 725.06h-70.58c-44.9 0-81.42 47.44-81.42 105.76v62.52a391.22 391.22 0 0 0 233.44 0.28v-62.8c0-58.32-36.54-105.76-81.44-105.76z" fill="#F4B4B1" p-id="2369"></path><path d="M428 272.64c0-27.36 6.96-49.64 32.92-49.64h101.74c26 0 35.06 22.28 35.06 49.64v9.8h34.48v-74.6c0-48.56-38.5-88-85.84-88h-73.34c-47.32 0-90 39.5-90 88v74.6H428z" fill="#3D5890" p-id="2370"></path><path d="M562.12 119.78a83.36 83.36 0 0 1 22 20.22c7.88 10.5 11.58 18.72 15.14 33.54C608 210.14 606 270 606 270h22.7V189.38s-13-62.44-66.58-69.6z" fill="#304E82" p-id="2371"></path><path d="M525.68 735.58h-55.56c-35.36 0-64.12 44.42-64.12 99.12v58.58a261.3 261.3 0 0 0 183.76 0.26v-58.84c0.02-54.7-28.74-99.12-64.08-99.12z" fill="#E08476" p-id="2372"></path><path d="M415.66 358.48c0 48.98 72.44 77.22 95.46 77.22 23.76 0 95.46-27.38 95.46-77.22v-25.56h12a18.74 18.74 0 0 0 18.7-18.7 20 20 0 0 0-20-20h-35.06v-33.26a21.52 21.52 0 0 0-21.48-21.5h-98.38a21.52 21.52 0 0 0-21.48 21.5v33.36h-36a20 20 0 0 0-19.9 20 18.72 18.72 0 0 0 18.68 18.7h12z m83.44-14.68c0.2 0.32 4.94 7.84 12.84 7.88 8 0 12.7-7.56 12.9-8l20.52 12.46c-1.22 2-12.4 19.44-33.42 19.44h-0.18c-20.9-0.1-32-17.46-33.24-19.44z" fill="#F4B4B1" p-id="2373"></path><path d="M982 391.64C967.3 253.3 850 170 848.72 169.2l-0.68-0.5c-1.84-1.44-46.16-35.3-111.56-0.8a49.16 49.16 0 0 0 13.22 53.78l1.7 1.52a27.8 27.8 0 0 0 18.4 7.08h0.2c50.32-0.3 62.82-27.62 62.92-28l22.24 9.04c-0.38 0.96-6 14.12-22.54 25.6l23.56 29.1 0.26 3.78c6.52 93.86 39.42 105.12 49.34 106.34a68.96 68.96 0 0 1 40.22 19.62l-16.96 16.98a44.94 44.94 0 0 0-26.2-12.74 52.24 52.24 0 0 1-20-6.96l-13.76 5.68a77.04 77.04 0 0 1-36.38 6c-22.26-2-52 6.2-67.12 55.56l-22.94-7.04a147.22 147.22 0 0 1 8.98-22.68c-45.04 0.32-70 16.64-83.14 31.14a89.58 89.58 0 0 1-65.84 29.68h-2.74v-24h2.74a62.36 62.36 0 0 0 24-4.9c-13.9-6.1-27.66-16.84-34.94-34.34-27 20.78-61.44 31.6-80.6 31.6s-53.28-10.72-80.22-31.3c-7.28 17.3-20.96 28-34.78 34a62.86 62.86 0 0 0 25.3 5.42h2.74v24h-2.74a89.58 89.58 0 0 1-65.84-29.68c-13.22-14.52-38.12-30.84-83.16-31.16a147.48 147.48 0 0 1 9 22.76l-22.94 7.04c-15.16-49.36-44.86-57.46-67.12-55.56a77.26 77.26 0 0 1-36.38-6l-13.82-5.72a52.52 52.52 0 0 1-20 6.92 44.94 44.94 0 0 0-26.22 12.68L78 396.24a68.96 68.96 0 0 1 40.28-19.52c10-1.22 42.82-12.48 49.34-106.34l0.26-3.76 23.56-29.12C174.86 226 169.28 212.88 168.88 212l11.12-4.6 11.04-4.7c0.5 1.14 12.9 27.76 63 28a27.28 27.28 0 0 0 18.56-7.08l1.7-1.5a49.18 49.18 0 0 0 13.22-53.8c-65.4-34.5-109.74-0.64-111.62 0.86l-0.64 0.46c-1.16 0.82-118.56 84-133.16 222.42-0.3 2.84-0.74 5.78-1.32 9.02-1.9 10.34 6.68 18.66 24.14 23.42l6.26 1.72 2 6.18c0.3 0.9 30.82 92.9 98.48 127.22 29.78 15.1 62.9 16.84 98.4 5.14l7.5 22.8a185.28 185.28 0 0 1-26.24 6.6c-3 34.24 12.4 60 26.4 76 28.84 32.86 49.12 69.36 60.32 108.44 7.1 24.84 11.46 65.44 12.98 81.52 10.12 4.9 20.48 9.3 31 13.26v-46.08c0-63.8 43.66-115.72 97.32-115.72h63.56c53.68 0 97.34 52 97.34 115.72v46.44a364.34 364.34 0 0 0 32-13.68c0.12-34.6 7.72-60.98 12.86-78.84l0.86-3.04c11.2-39.1 31.48-75.58 60.32-108.44 9.68-11.04 22-29.16 25.68-52.8a96.78 96.78 0 0 0 0.74-23.22 179.6 179.6 0 0 1-26.26-6.6l7.56-22.78c35.54 11.7 68.68 10 98.5-5.2 67.78-34.44 98-126.24 98.38-127.18l2-6.18 6.26-1.7c17.46-4.76 26-13.08 24.14-23.44-0.64-3.22-1.08-6.18-1.28-9z m-778.34 137.42a84.8 84.8 0 0 1-42.6-11.06c-39.7-22.58-52.32-71.5-52.84-73.58l11.64-2.9 11.62-2.94c0.12 0.42 10.82 41.24 41.56 58.64 15.88 8.98 34.88 10.26 56.48 3.78l6.9 23a114 114 0 0 1-32.76 5.06z m420.9 74.4a15.42 15.42 0 1 1-15.42 15.42 15.42 15.42 0 0 1 15.42-15.42z m-218.82 0a15.42 15.42 0 1 1-15.4 15.42 15.42 15.42 0 0 1 15.4-15.42z m343.6-59.7A44.82 44.82 0 0 0 716 568.78l-37 81.52a51.18 51.18 0 0 1-46.5 30h-57.4c-21.84 0-54.96-13.72-64-35.74-8.7 22.32-41.04 36.22-62.28 36.22h-57.4a51.2 51.2 0 0 1-46.5-30L308 569.26a44.82 44.82 0 0 0-33.3-25.02 66.68 66.68 0 0 1-27-11.36l15.06-18.7a44.82 44.82 0 0 0 16.2 6.48 68.7 68.7 0 0 1 50.94 38.72l37.04 81.52a27.14 27.14 0 0 0 24.66 15.88h57.4c15.12 0 38.58-11.7 40.4-22.62l10-59.88 11.3 1.88 12.38-2 10 59.88c1.8 10.78 26.28 22.32 42.16 22.32h57.4a27.12 27.12 0 0 0 24.64-15.88l37.04-81.52a68.78 68.78 0 0 1 50.96-38.72 44.34 44.34 0 0 0 16.2-6.5l14.98 18.76a66.54 66.54 0 0 1-27.12 11.26z m111.84-25.22a84.74 84.74 0 0 1-42.6 11.1 114 114 0 0 1-32.76-5.12l6.9-23c21.6 6.48 40.6 5.22 56.48-3.78 30.76-17.4 41.46-58.22 41.56-58.62l23.24 5.84c-0.48 2.06-13.1 51.04-52.82 73.58z" fill="#F4B4B1" p-id="2374"></path><path d="M798.76 681.04a289.66 289.66 0 0 0-51.84 83.7l22.3 8.88a265.62 265.62 0 0 1 47.6-76.74c11.76-13.44 26.76-35.6 31.34-64.94l-23.7-3.7c-3.7 23.76-16 41.76-25.7 52.8zM737.6 792.52c-4.7 16.28-11.12 38.56-12.56 67.56l24 1.2c1.32-26.22 7.06-46.12 11.66-62.12l0.88-3.06-23.08-6.62z" fill="#122546" p-id="2375"></path><path d="M173.04 497.18c-30.74-17.4-41.44-58.22-41.56-58.64l-11.62 2.94-11.64 2.9c0.52 2 13.14 51 52.84 73.58a84.8 84.8 0 0 0 42.6 11.1 114 114 0 0 0 32.76-5.06l-6.9-22.98c-21.52 6.42-40.6 5.14-56.48-3.84zM849.2 497.74c-15.88 9-34.88 10.26-56.48 3.78l-6.9 23a114 114 0 0 0 32.76 5.12 84.74 84.74 0 0 0 42.6-11.1c39.72-22.54 52.34-71.52 52.82-73.58l-23.28-5.84c-0.06 0.4-10.72 41.22-41.52 58.62z" fill="#E08476" p-id="2376"></path><path d="M1005.78 389.12c-8.26-78.26-46.76-139.2-77.58-176.56-32-38.68-62-60.34-65.48-62.84-5.56-4.32-62-45.28-141.52-0.84l-3.36 1.88-1.64 3.5a73.24 73.24 0 0 0 17.56 85.36l1.7 1.52a51.64 51.64 0 0 0 34.34 13.14h0.32a126.76 126.76 0 0 0 40.46-6.28l22.16 27.38c4 51.68 16.5 82 30.3 100l-3.18 1.32a53.7 53.7 0 0 1-25.18 4.18 80.26 80.26 0 0 0-67.3 26.2c-62.94-4-97.76 18-116 37.8-10.56-1.6-35.4-8.26-40-35.36 11.66-14.14 19.32-31.16 19.32-50.94v-3.38a42.78 42.78 0 0 0 30.7-40.98 43.74 43.74 0 0 0-9.4-26.98v-79.66c0-57.72-48-104.68-106.98-104.68h-70.8c-59 0-107 46.96-107 104.68v84.16a43.64 43.64 0 0 0-6.2 22.48 42.76 42.76 0 0 0 30.68 40.98v3.28c0 20 7.86 37.2 19.76 51.46-4.76 26.14-28.24 32.98-39.32 34.74-18.42-19.54-53.2-41.14-115.54-37.22a80.3 80.3 0 0 0-67.24-26.12 53.7 53.7 0 0 1-25.18-4.18l-3.22-1.34c13.82-17.84 26.26-48.24 30.34-100l22.16-27.38a126.76 126.76 0 0 0 40.46 6.3 51.8 51.8 0 0 0 34.66-13.14l1.7-1.52a73.24 73.24 0 0 0 17.56-85.36l-1.64-3.48-3.36-1.9c-79.46-44.42-136-3.46-141.52 0.84-3.56 2.5-33.52 24.16-65.46 62.86-30.88 37.36-69.38 98.3-77.64 176.56-0.22 2.24-0.58 4.6-1.06 7.24C14 414 22 435.26 52.46 445.82c8.34 22.54 41.54 101.32 108.24 135.2a140 140 0 0 0 64.26 15.5h2.12c-2.16 40.38 16 70.64 32.6 89.58 26.48 30.18 45.08 63.56 55.28 99.22 8.16 28.54 12.72 83.08 12.76 83.64l0.54 6.68 6 3.04a393.74 393.74 0 0 0 173.74 42.4h3.54a394 394 0 0 0 178.28-42.96l6.76-3.46-0.22-7.58c-1-34.68 6.42-60.44 11.84-79.24l0.88-3.08c10.2-35.66 28.8-69.04 55.28-99.22 11.78-13.42 26.78-35.58 31.34-64.92a117.88 117.88 0 0 0 1.24-24.64h2.14a140.24 140.24 0 0 0 64.26-15.5c66.7-33.88 100-112.66 108.24-135.2 30.52-10.58 38.42-31.86 35.3-48.98-0.52-2.58-0.88-4.96-1.1-7.18z m-614.6-181.54c0-44.48 37.24-80.68 83-80.68h70.8c45.76 0 82.98 36.2 82.98 80.68V270h-21.74v-8.96a45.54 45.54 0 0 0-45.48-45.5h-98.38a45.54 45.54 0 0 0-45.48 45.5V270h-25.7z m12.48 125.34a18.72 18.72 0 0 1-18.68-18.7 20 20 0 0 1 19.9-20h36v-33.26a21.52 21.52 0 0 1 21.48-21.5h98.38a21.52 21.52 0 0 1 21.48 21.5v33.36h35.14a20 20 0 0 1 20 20 18.74 18.74 0 0 1-18.7 18.7h-12v25.56c0 49.84-71.7 77.22-95.46 77.22-23.02 0-95.46-28.24-95.46-77.22v-25.66z m212.58 548.86a365.6 365.6 0 0 1-210.24-0.24v-54.24c0-50.58 32.88-91.72 73.32-91.72h63.56c40.44 0 73.34 41.14 73.34 91.72zM959.08 424l-6.26 1.7-2 6.18c-0.3 0.94-30.6 92.74-98.38 127.18-29.82 15.16-62.96 16.9-98.5 5.2l-7.5 22.78a179.6 179.6 0 0 0 26.26 6.6 96.78 96.78 0 0 1-0.74 23.22c-3.7 23.64-16 41.76-25.68 52.8-28.84 32.86-49.12 69.34-60.32 108.44l-0.86 3.04c-5.14 17.86-12.74 44.24-12.86 78.84a364.34 364.34 0 0 1-32 13.68v-46.36c0-63.8-43.66-115.72-97.34-115.72h-63.56c-53.66 0-97.32 52-97.32 115.72v46.14c-10.52-4-20.88-8.36-31-13.26-1.52-16-5.88-56.68-12.98-81.52-11.2-39.08-31.48-75.58-60.32-108.44-14-16-29.4-41.76-26.4-76a185.28 185.28 0 0 0 26.24-6.6l-7.56-22.8c-35.5 11.7-68.62 10-98.4-5.14-67.6-34.32-98.12-126.32-98.42-127.22l-2-6.18-6.26-1.72c-17.46-4.76-26-13.08-24.14-23.42 0.58-3.24 1.02-6.18 1.32-9.02 14.6-138.34 132-221.6 133.16-222.42l0.64-0.46c1.88-1.5 46.22-35.36 111.62-0.86a49.18 49.18 0 0 1-13.22 53.8l-1.7 1.5a27.28 27.28 0 0 1-18.56 7.08c-50-0.3-62.5-26.92-63-28L180 207.4l-11.12 4.6c0.4 0.98 6 14.12 22.54 25.6l-23.56 29.02-0.26 3.76c-6.52 93.86-39.42 105.12-49.34 106.34A68.96 68.96 0 0 0 78 396.24l16.96 16.98a44.94 44.94 0 0 1 26.22-12.68 52.52 52.52 0 0 0 20-6.92l13.82 5.72a77.26 77.26 0 0 0 36.38 6c22.26-2 52 6.2 67.12 55.56l22.94-7.04a147.48 147.48 0 0 0-9-22.76c45.04 0.32 70 16.64 83.16 31.16a89.58 89.58 0 0 0 65.84 29.68h2.74v-24h-2.74a62.86 62.86 0 0 1-25.3-5.42c13.82-6 27.5-16.72 34.78-34 26.94 20.58 61.16 31.3 80.22 31.3s53.6-10.82 80.6-31.6c7.28 17.5 21.04 28.24 34.94 34.34a62.36 62.36 0 0 1-24 4.9h-2.74v24h2.74a89.58 89.58 0 0 0 65.84-29.68c13.22-14.5 38.1-30.82 83.14-31.14a147.22 147.22 0 0 0-8.98 22.68l22.94 7.04c15.16-49.36 44.86-57.46 67.12-55.56a77.04 77.04 0 0 0 36.38-6l13.76-5.68a52.24 52.24 0 0 0 20 6.96 44.94 44.94 0 0 1 26.22 12.68l16.96-16.98a68.96 68.96 0 0 0-40.28-19.52c-10-1.22-42.82-12.48-49.34-106.34l-0.26-3.78-23.56-29.1c16.56-11.48 22.16-24.64 22.54-25.6l-22.24-9.04c-0.1 0.28-12.6 27.6-62.92 28h-0.16a27.8 27.8 0 0 1-18.4-7.08l-1.7-1.52a49.16 49.16 0 0 1-13.26-53.8c65.4-34.5 109.72-0.64 111.56 0.8l0.68 0.5c1.28 0.7 118.58 84 133.28 222.34 0.3 2.82 0.74 5.78 1.32 9 1.78 10.36-6.78 18.68-24.24 23.36z" fill="#122546" p-id="2377"></path><path d="M745.14 520.14a68.78 68.78 0 0 0-50.96 38.72l-37.04 81.52a27.12 27.12 0 0 1-24.64 15.88h-57.4c-15.88 0-40.36-11.54-42.16-22.32l-10-59.88-12.38 2-11.3-1.88-10 59.88c-1.82 10.92-25.28 22.62-40.4 22.62h-57.4a27.14 27.14 0 0 1-24.66-15.88l-37-81.46a68.7 68.7 0 0 0-50.94-38.72 44.82 44.82 0 0 1-16.2-6.48l-15.06 18.7a66.68 66.68 0 0 0 27 11.36 44.82 44.82 0 0 1 33.4 25.06l37 81.54a51.2 51.2 0 0 0 46.5 30h57.4c21.24 0 53.58-13.9 62.28-36.22 8.96 22 42 35.74 64 35.74h57.4a51.18 51.18 0 0 0 46.5-30L716 568.78a44.82 44.82 0 0 1 33.3-25.02 66.54 66.54 0 0 0 26.98-11.36l-14.98-18.76a44.34 44.34 0 0 1-16.16 6.5z" fill="#122546" p-id="2378"></path><path d="M405.74 634.28a15.42 15.42 0 1 0-15.4-15.4 15.42 15.42 0 0 0 15.4 15.4zM624.56 634.28a15.42 15.42 0 1 0-15.42-15.4 15.4 15.4 0 0 0 15.42 15.4zM511.82 375.68h0.18c21.02 0 32.2-17.44 33.42-19.44l-20.52-12.46c-0.2 0.34-4.98 8-12.9 8-7.9 0-12.64-7.56-12.84-7.88l-20.52 12.44c1.14 1.88 12.28 19.24 33.18 19.34z" fill="#122546" p-id="2379"></path></svg>