<svg t="1699449940405" class="icon" viewBox="0 0 1024 1024" version="1.1" xmlns="http://www.w3.org/2000/svg" p-id="7019" width="200" height="200"><path d="M772.6 772.4c22.3 22.3 58.6 22.3 80.9 0 22.3-22.3 22.3-58.6 0-80.9-22.3-22.3-58.6-22.3-80.9 0-3.2 3.2-6 6.7-8.3 10.5l-97.9-97.9c-5.1-5.1-13.5-5.1-18.7 0l-45.1 45.1c-5.1 5.1-5.1 13.5 0 18.7l97.5 97.5c-3 2-5.9 4.4-8.6 7.1-22.3 22.3-22.3 58.6 0 80.9 22.3 22.3 58.6 22.3 80.9 0 22.5-22.5 22.5-58.7 0.2-81" fill="#FFE8CA" p-id="7020"></path><path d="M732.1 884.9c-18.5 0-36.9-7-51-21.1-27.2-27.2-28.1-70.9-2.6-99.1l-86.3-86.3c-5.3-5.3-8.2-12.3-8.2-19.8s2.9-14.5 8.2-19.8l45.1-45.1c5.3-5.3 12.3-8.2 19.8-8.2s14.5 2.9 19.8 8.2l86.3 86.3c28.2-27 73-26.6 100.8 1.1 13.6 13.6 21.1 31.7 21.1 51s-7.5 37.3-21.1 51c-16.5 16.5-38.9 23.3-60.4 20.5 0.4 3.1 0.6 6.3 0.6 9.5 0 19.2-7.5 37.3-21.1 51-14.1 13.7-32.5 20.8-51 20.8zM614.4 658.5l96.3 96.3c3.1 3.1 4.7 7.5 4.3 11.9-0.4 4.4-2.8 8.4-6.5 10.9-2.3 1.5-4.4 3.3-6.3 5.2-16.5 16.5-16.5 43.4 0 59.9 8 8 18.6 12.4 29.9 12.4 11.3 0 21.9-4.4 29.9-12.4 16.5-16.5 16.5-43.4 0-59.9-2.9-2.9-4.4-6.7-4.4-10.5s1.5-7.6 4.4-10.5c5.8-5.8 15.2-5.8 21 0 16.5 16.5 43.4 16.5 59.9 0s16.5-43.4 0-59.9-43.4-16.5-59.9 0c-2.3 2.3-4.4 4.9-6.1 7.8-2.4 3.9-6.4 6.4-10.9 7-4.5 0.5-9-1-12.2-4.3l-96.7-96.7-42.7 42.8z" fill="#3F2D26" p-id="7021"></path><path d="M594.9 210.5C488 101.8 311.8 99.6 204.6 208c-105.4 106.6-105 278.5 1.1 384.7 0 0 142.1 146.1 326.3 139.7 111-3.8 199-94.4 201.3-205.5 1.8-87.6-25.6-201.9-138.4-316.4z" fill="#FF593E" p-id="7022"></path><path d="M520.4 747.5c-39.9 0-80.8-6.7-121.7-20.1C362.9 715.7 327 699 292 677.6c-58.7-35.8-94.5-72.1-96.9-74.5-54.1-54.1-84-126-84.2-202.5-0.2-76.5 29.3-148.6 83.1-203C248 143 320.3 113 397.6 113h0.3c38.2 0 75.4 7.4 110.7 21.9 36.5 15 69.1 36.9 96.9 65.2 53.1 53.9 91.9 112.2 115.4 173.4 19.1 49.7 28.3 101.4 27.2 153.7-2.5 119.3-97.2 215.9-215.7 220-3.9 0.2-7.9 0.3-12 0.3zM397.6 142.7c-69.3 0-134.1 26.9-182.4 75.8-99.4 100.5-99 263.7 1 363.7l0.1 0.1c0.3 0.3 35.4 36 91.8 70.3 51.5 31.3 132.1 68.1 223.3 64.9 102.7-3.5 184.8-87.4 187-190.9 2.3-110.1-42.8-213-134.1-305.7-49.6-50.3-115.8-78.1-186.5-78.2h-0.2z" fill="#3F2D26" p-id="7023"></path><path d="M223.3 211.7c122-31.8 466.5-79 472.1 402.8 14.1-26.9 22.4-57.3 23.1-89.6 1.7-83.6-24.4-192.6-132-301.9-99.1-100.6-260.2-105.6-363.2-11.3z" fill="#ED4A3A" p-id="7024"></path></svg>